<mxfile host="app.diagrams.net" modified="2024-04-14T01:01:15.523Z" agent="Mozilla/5.0 (Windows NT 10.0; Win64; x64) AppleWebKit/537.36 (KHTML, like Gecko) Chrome/123.0.0.0 Safari/537.36" etag="13MwTnPDHQZohey6knRl" version="24.2.5" type="github">
  <diagram name="第 1 页" id="cJk13fZ1Xs9ll7WhpZtT">
    <mxGraphModel dx="1434" dy="746" grid="1" gridSize="10" guides="1" tooltips="1" connect="1" arrows="1" fold="1" page="1" pageScale="1" pageWidth="827" pageHeight="1169" math="0" shadow="0">
      <root>
        <mxCell id="0" />
        <mxCell id="1" parent="0" />
        <mxCell id="pWNWsEvPuvu-C5qg_55w-1" value="&lt;h4 style=&quot;text-align: justify;&quot;&gt;&lt;span style=&quot;background-color: initial;&quot;&gt;CPU-C1&lt;/span&gt;&lt;/h4&gt;" style="rounded=0;whiteSpace=wrap;html=1;align=center;horizontal=1;verticalAlign=top;labelBackgroundColor=none;strokeWidth=3;" parent="1" vertex="1">
          <mxGeometry x="220" y="311" width="190" height="280" as="geometry" />
        </mxCell>
        <mxCell id="pWNWsEvPuvu-C5qg_55w-2" value="&lt;h4 style=&quot;text-align: justify;&quot;&gt;&lt;span style=&quot;background-color: initial;&quot;&gt;CPU-C2&lt;/span&gt;&lt;/h4&gt;" style="rounded=0;whiteSpace=wrap;html=1;align=center;horizontal=1;verticalAlign=top;labelBackgroundColor=none;strokeWidth=3;" parent="1" vertex="1">
          <mxGeometry x="540" y="311" width="180" height="280" as="geometry" />
        </mxCell>
        <mxCell id="pWNWsEvPuvu-C5qg_55w-3" value="线程1" style="rounded=1;whiteSpace=wrap;html=1;labelBackgroundColor=none;strokeWidth=2;" parent="1" vertex="1">
          <mxGeometry x="270" y="371" width="80" height="40" as="geometry" />
        </mxCell>
        <mxCell id="pWNWsEvPuvu-C5qg_55w-4" value="线程2" style="rounded=1;whiteSpace=wrap;html=1;labelBackgroundColor=none;strokeWidth=2;" parent="1" vertex="1">
          <mxGeometry x="590" y="371" width="80" height="40" as="geometry" />
        </mxCell>
        <mxCell id="pWNWsEvPuvu-C5qg_55w-5" value="工作内存" style="rounded=0;whiteSpace=wrap;html=1;verticalAlign=top;labelBackgroundColor=none;strokeWidth=2;" parent="1" vertex="1">
          <mxGeometry x="250" y="461" width="120" height="100" as="geometry" />
        </mxCell>
        <mxCell id="pWNWsEvPuvu-C5qg_55w-6" value="工作内存" style="rounded=0;whiteSpace=wrap;html=1;verticalAlign=top;labelBackgroundColor=none;strokeWidth=2;" parent="1" vertex="1">
          <mxGeometry x="570" y="461" width="120" height="109" as="geometry" />
        </mxCell>
        <mxCell id="pWNWsEvPuvu-C5qg_55w-8" value="" style="endArrow=classic;html=1;rounded=0;labelBackgroundColor=none;fontColor=default;" parent="1" source="pWNWsEvPuvu-C5qg_55w-5" target="pWNWsEvPuvu-C5qg_55w-3" edge="1">
          <mxGeometry width="50" height="50" relative="1" as="geometry">
            <mxPoint x="410" y="611" as="sourcePoint" />
            <mxPoint x="460" y="561" as="targetPoint" />
          </mxGeometry>
        </mxCell>
        <mxCell id="pWNWsEvPuvu-C5qg_55w-39" value="use" style="edgeLabel;html=1;align=center;verticalAlign=middle;resizable=0;points=[];fontSize=13;" parent="pWNWsEvPuvu-C5qg_55w-8" vertex="1" connectable="0">
          <mxGeometry x="0.24" y="2" relative="1" as="geometry">
            <mxPoint x="2" y="10" as="offset" />
          </mxGeometry>
        </mxCell>
        <mxCell id="pWNWsEvPuvu-C5qg_55w-9" value="" style="endArrow=classic;html=1;rounded=0;entryX=0.5;entryY=1;entryDx=0;entryDy=0;labelBackgroundColor=none;fontColor=default;" parent="1" source="pWNWsEvPuvu-C5qg_55w-6" target="pWNWsEvPuvu-C5qg_55w-4" edge="1">
          <mxGeometry width="50" height="50" relative="1" as="geometry">
            <mxPoint x="470" y="461" as="sourcePoint" />
            <mxPoint x="470" y="411" as="targetPoint" />
          </mxGeometry>
        </mxCell>
        <mxCell id="pWNWsEvPuvu-C5qg_55w-40" value="use" style="edgeLabel;html=1;align=center;verticalAlign=middle;resizable=0;points=[];fontSize=13;" parent="pWNWsEvPuvu-C5qg_55w-9" vertex="1" connectable="0">
          <mxGeometry x="0.12" y="-2" relative="1" as="geometry">
            <mxPoint x="-2" y="7" as="offset" />
          </mxGeometry>
        </mxCell>
        <mxCell id="pWNWsEvPuvu-C5qg_55w-10" value="i=0" style="rounded=1;whiteSpace=wrap;html=1;labelBackgroundColor=none;fillColor=#6a00ff;fontColor=#ffffff;strokeColor=#3700CC;" parent="1" vertex="1">
          <mxGeometry x="285" y="499" width="50" height="30" as="geometry" />
        </mxCell>
        <mxCell id="pWNWsEvPuvu-C5qg_55w-11" value="i=0" style="rounded=1;whiteSpace=wrap;html=1;labelBackgroundColor=none;fillColor=#6a00ff;fontColor=#ffffff;strokeColor=#3700CC;" parent="1" vertex="1">
          <mxGeometry x="605" y="531" width="50" height="30" as="geometry" />
        </mxCell>
        <mxCell id="pWNWsEvPuvu-C5qg_55w-12" value="&lt;b&gt;&lt;font style=&quot;font-size: 28px;&quot;&gt;总线&lt;/font&gt;&lt;/b&gt;" style="shape=process;whiteSpace=wrap;html=1;backgroundOutline=1;labelBackgroundColor=none;strokeWidth=2;dashed=1;" parent="1" vertex="1">
          <mxGeometry x="90" y="720" width="760" height="60" as="geometry" />
        </mxCell>
        <mxCell id="pWNWsEvPuvu-C5qg_55w-13" value="主内存" style="rounded=0;whiteSpace=wrap;html=1;fontSize=19;verticalAlign=top;labelBackgroundColor=none;strokeWidth=3;" parent="1" vertex="1">
          <mxGeometry x="210" y="860" width="530" height="100" as="geometry" />
        </mxCell>
        <mxCell id="pWNWsEvPuvu-C5qg_55w-14" value="i=0" style="rounded=1;whiteSpace=wrap;html=1;labelBackgroundColor=none;strokeColor=#230be0;strokeWidth=2;" parent="1" vertex="1">
          <mxGeometry x="350" y="900" width="105" height="40" as="geometry" />
        </mxCell>
        <mxCell id="pWNWsEvPuvu-C5qg_55w-15" value="i=0" style="rounded=1;whiteSpace=wrap;html=1;labelBackgroundColor=none;" parent="1" vertex="1">
          <mxGeometry x="130" y="620" width="55" height="40" as="geometry" />
        </mxCell>
        <mxCell id="pWNWsEvPuvu-C5qg_55w-16" value="i=0" style="rounded=1;whiteSpace=wrap;html=1;labelBackgroundColor=none;" parent="1" vertex="1">
          <mxGeometry x="760" y="620" width="55" height="40" as="geometry" />
        </mxCell>
        <mxCell id="pWNWsEvPuvu-C5qg_55w-17" value="" style="endArrow=classic;html=1;rounded=0;exitX=0.096;exitY=0.008;exitDx=0;exitDy=0;exitPerimeter=0;entryX=0.5;entryY=1;entryDx=0;entryDy=0;labelBackgroundColor=none;fontColor=default;strokeWidth=2;fillColor=#6a00ff;strokeColor=#3700CC;" parent="1" source="pWNWsEvPuvu-C5qg_55w-13" target="pWNWsEvPuvu-C5qg_55w-15" edge="1">
          <mxGeometry width="50" height="50" relative="1" as="geometry">
            <mxPoint x="410" y="690" as="sourcePoint" />
            <mxPoint x="460" y="640" as="targetPoint" />
            <Array as="points">
              <mxPoint x="158" y="770" />
            </Array>
          </mxGeometry>
        </mxCell>
        <mxCell id="pWNWsEvPuvu-C5qg_55w-18" value="read" style="edgeLabel;html=1;align=center;verticalAlign=middle;resizable=0;points=[];fontSize=20;labelBackgroundColor=none;" parent="pWNWsEvPuvu-C5qg_55w-17" vertex="1" connectable="0">
          <mxGeometry x="-0.4816" relative="1" as="geometry">
            <mxPoint x="-83" y="-68" as="offset" />
          </mxGeometry>
        </mxCell>
        <mxCell id="pWNWsEvPuvu-C5qg_55w-19" value="" style="endArrow=classic;html=1;rounded=0;entryX=0;entryY=0.75;entryDx=0;entryDy=0;exitX=0.5;exitY=0;exitDx=0;exitDy=0;labelBackgroundColor=none;fontColor=default;strokeWidth=2;fillColor=#6a00ff;strokeColor=#3700CC;" parent="1" source="pWNWsEvPuvu-C5qg_55w-15" target="pWNWsEvPuvu-C5qg_55w-5" edge="1">
          <mxGeometry width="50" height="50" relative="1" as="geometry">
            <mxPoint x="20" y="630" as="sourcePoint" />
            <mxPoint x="70" y="580" as="targetPoint" />
            <Array as="points">
              <mxPoint x="158" y="536" />
            </Array>
          </mxGeometry>
        </mxCell>
        <mxCell id="pWNWsEvPuvu-C5qg_55w-20" value="load" style="edgeLabel;html=1;align=center;verticalAlign=middle;resizable=0;points=[];fontSize=18;labelBackgroundColor=none;" parent="pWNWsEvPuvu-C5qg_55w-19" vertex="1" connectable="0">
          <mxGeometry x="-0.409" y="-1" relative="1" as="geometry">
            <mxPoint as="offset" />
          </mxGeometry>
        </mxCell>
        <mxCell id="pWNWsEvPuvu-C5qg_55w-21" value="" style="endArrow=classic;html=1;rounded=0;entryX=0.5;entryY=1;entryDx=0;entryDy=0;labelBackgroundColor=none;fontColor=default;strokeWidth=2;exitX=0.938;exitY=0.01;exitDx=0;exitDy=0;exitPerimeter=0;fillColor=#6a00ff;strokeColor=#3700CC;" parent="1" source="pWNWsEvPuvu-C5qg_55w-13" target="pWNWsEvPuvu-C5qg_55w-16" edge="1">
          <mxGeometry width="50" height="50" relative="1" as="geometry">
            <mxPoint x="700" y="860" as="sourcePoint" />
            <mxPoint x="712.12" y="670" as="targetPoint" />
            <Array as="points">
              <mxPoint x="788" y="790" />
            </Array>
          </mxGeometry>
        </mxCell>
        <mxCell id="pWNWsEvPuvu-C5qg_55w-22" value="read" style="edgeLabel;html=1;align=center;verticalAlign=middle;resizable=0;points=[];fontSize=20;labelBackgroundColor=none;" parent="pWNWsEvPuvu-C5qg_55w-21" vertex="1" connectable="0">
          <mxGeometry x="-0.4816" relative="1" as="geometry">
            <mxPoint x="68" y="-77" as="offset" />
          </mxGeometry>
        </mxCell>
        <mxCell id="pWNWsEvPuvu-C5qg_55w-23" value="" style="endArrow=classic;html=1;rounded=0;entryX=0.992;entryY=0.688;entryDx=0;entryDy=0;exitX=0.5;exitY=0;exitDx=0;exitDy=0;entryPerimeter=0;labelBackgroundColor=none;fontColor=default;strokeWidth=2;fillColor=#6a00ff;strokeColor=#3700CC;" parent="1" source="pWNWsEvPuvu-C5qg_55w-16" target="pWNWsEvPuvu-C5qg_55w-6" edge="1">
          <mxGeometry width="50" height="50" relative="1" as="geometry">
            <mxPoint x="790.5" y="620" as="sourcePoint" />
            <mxPoint x="882.5" y="536" as="targetPoint" />
            <Array as="points">
              <mxPoint x="788" y="536" />
            </Array>
          </mxGeometry>
        </mxCell>
        <mxCell id="pWNWsEvPuvu-C5qg_55w-24" value="load" style="edgeLabel;html=1;align=center;verticalAlign=middle;resizable=0;points=[];fontSize=18;labelBackgroundColor=none;" parent="pWNWsEvPuvu-C5qg_55w-23" vertex="1" connectable="0">
          <mxGeometry x="-0.409" y="-1" relative="1" as="geometry">
            <mxPoint as="offset" />
          </mxGeometry>
        </mxCell>
        <mxCell id="pWNWsEvPuvu-C5qg_55w-26" value="i=1" style="rounded=1;whiteSpace=wrap;html=1;dashed=1;dashPattern=1 2;labelBackgroundColor=none;strokeWidth=2;fillColor=#dae8fc;strokeColor=#6c8ebf;" parent="1" vertex="1">
          <mxGeometry x="605" y="490" width="50" height="30" as="geometry" />
        </mxCell>
        <mxCell id="pWNWsEvPuvu-C5qg_55w-27" value="" style="endArrow=classic;html=1;rounded=0;strokeWidth=2;dashed=1;dashPattern=1 1;" parent="1" source="pWNWsEvPuvu-C5qg_55w-6" edge="1">
          <mxGeometry width="50" height="50" relative="1" as="geometry">
            <mxPoint x="400" y="660" as="sourcePoint" />
            <mxPoint x="520" y="720" as="targetPoint" />
            <Array as="points">
              <mxPoint x="520" y="516" />
              <mxPoint x="520" y="690" />
            </Array>
          </mxGeometry>
        </mxCell>
        <mxCell id="pWNWsEvPuvu-C5qg_55w-28" value="store" style="edgeLabel;html=1;align=center;verticalAlign=middle;resizable=0;points=[];fontSize=16;fontStyle=1" parent="pWNWsEvPuvu-C5qg_55w-27" vertex="1" connectable="0">
          <mxGeometry x="0.0357" relative="1" as="geometry">
            <mxPoint y="22" as="offset" />
          </mxGeometry>
        </mxCell>
        <mxCell id="pWNWsEvPuvu-C5qg_55w-29" value="i=2" style="rounded=1;whiteSpace=wrap;html=1;dashed=1;dashPattern=1 2;labelBackgroundColor=none;strokeWidth=2;fillColor=#dae8fc;strokeColor=#6c8ebf;" parent="1" vertex="1">
          <mxGeometry x="580" y="810" width="50" height="30" as="geometry" />
        </mxCell>
        <mxCell id="pWNWsEvPuvu-C5qg_55w-30" value="" style="endArrow=classic;html=1;rounded=0;entryX=0.25;entryY=0;entryDx=0;entryDy=0;strokeWidth=2;dashed=1;dashPattern=1 2;" parent="1" source="pWNWsEvPuvu-C5qg_55w-12" target="pWNWsEvPuvu-C5qg_55w-29" edge="1">
          <mxGeometry width="50" height="50" relative="1" as="geometry">
            <mxPoint x="370" y="680" as="sourcePoint" />
            <mxPoint x="420" y="630" as="targetPoint" />
          </mxGeometry>
        </mxCell>
        <mxCell id="pWNWsEvPuvu-C5qg_55w-31" value="" style="endArrow=classic;html=1;rounded=0;exitX=0.5;exitY=1;exitDx=0;exitDy=0;entryX=0.5;entryY=0;entryDx=0;entryDy=0;fillColor=#d80073;strokeColor=#A50040;" parent="1" source="pWNWsEvPuvu-C5qg_55w-29" target="pWNWsEvPuvu-C5qg_55w-32" edge="1">
          <mxGeometry width="50" height="50" relative="1" as="geometry">
            <mxPoint x="840" y="930" as="sourcePoint" />
            <mxPoint x="890" y="880" as="targetPoint" />
          </mxGeometry>
        </mxCell>
        <mxCell id="pWNWsEvPuvu-C5qg_55w-32" value="i=2" style="rounded=1;whiteSpace=wrap;html=1;dashed=1;dashPattern=1 2;labelBackgroundColor=none;strokeWidth=2;fillColor=#dae8fc;strokeColor=#6c8ebf;" parent="1" vertex="1">
          <mxGeometry x="580" y="905" width="50" height="30" as="geometry" />
        </mxCell>
        <mxCell id="pWNWsEvPuvu-C5qg_55w-33" value="" style="endArrow=classic;html=1;rounded=0;exitX=0;exitY=0.5;exitDx=0;exitDy=0;fillColor=#d80073;strokeColor=#A50040;" parent="1" source="pWNWsEvPuvu-C5qg_55w-32" target="pWNWsEvPuvu-C5qg_55w-14" edge="1">
          <mxGeometry width="50" height="50" relative="1" as="geometry">
            <mxPoint x="410" y="690" as="sourcePoint" />
            <mxPoint x="460" y="640" as="targetPoint" />
          </mxGeometry>
        </mxCell>
        <mxCell id="pWNWsEvPuvu-C5qg_55w-34" value="update" style="edgeLabel;html=1;align=center;verticalAlign=middle;resizable=0;points=[];fontSize=15;" parent="pWNWsEvPuvu-C5qg_55w-33" vertex="1" connectable="0">
          <mxGeometry x="0.184" y="2" relative="1" as="geometry">
            <mxPoint as="offset" />
          </mxGeometry>
        </mxCell>
        <mxCell id="pWNWsEvPuvu-C5qg_55w-36" value="i=i++" style="rounded=1;whiteSpace=wrap;html=1;dashed=1;dashPattern=1 2;labelBackgroundColor=none;strokeWidth=2;" parent="1" vertex="1">
          <mxGeometry x="139" y="376" width="50" height="30" as="geometry" />
        </mxCell>
        <mxCell id="pWNWsEvPuvu-C5qg_55w-37" value="" style="endArrow=none;dashed=1;html=1;rounded=0;" parent="1" source="pWNWsEvPuvu-C5qg_55w-38" target="pWNWsEvPuvu-C5qg_55w-36" edge="1">
          <mxGeometry width="50" height="50" relative="1" as="geometry">
            <mxPoint x="310" y="616" as="sourcePoint" />
            <mxPoint x="470" y="626" as="targetPoint" />
          </mxGeometry>
        </mxCell>
        <mxCell id="pWNWsEvPuvu-C5qg_55w-38" value="i=?" style="text;html=1;align=center;verticalAlign=middle;whiteSpace=wrap;rounded=0;strokeColor=default;" parent="1" vertex="1">
          <mxGeometry x="134" y="431" width="60" height="30" as="geometry" />
        </mxCell>
        <mxCell id="pWNWsEvPuvu-C5qg_55w-41" value="i=i++" style="rounded=1;whiteSpace=wrap;html=1;dashed=1;dashPattern=1 2;labelBackgroundColor=none;strokeWidth=2;fillColor=#dae8fc;strokeColor=#6c8ebf;" parent="1" vertex="1">
          <mxGeometry x="740" y="376" width="50" height="30" as="geometry" />
        </mxCell>
        <mxCell id="pWNWsEvPuvu-C5qg_55w-42" value="" style="endArrow=classic;html=1;rounded=0;exitX=1;exitY=0.5;exitDx=0;exitDy=0;entryX=0;entryY=0.5;entryDx=0;entryDy=0;" parent="1" source="pWNWsEvPuvu-C5qg_55w-4" target="pWNWsEvPuvu-C5qg_55w-41" edge="1">
          <mxGeometry width="50" height="50" relative="1" as="geometry">
            <mxPoint x="420" y="690" as="sourcePoint" />
            <mxPoint x="470" y="640" as="targetPoint" />
          </mxGeometry>
        </mxCell>
        <mxCell id="pWNWsEvPuvu-C5qg_55w-43" value="" style="endArrow=classic;html=1;rounded=0;exitX=0.5;exitY=1;exitDx=0;exitDy=0;entryX=1;entryY=0.25;entryDx=0;entryDy=0;" parent="1" source="pWNWsEvPuvu-C5qg_55w-41" target="pWNWsEvPuvu-C5qg_55w-6" edge="1">
          <mxGeometry width="50" height="50" relative="1" as="geometry">
            <mxPoint x="830" y="450" as="sourcePoint" />
            <mxPoint x="880" y="400" as="targetPoint" />
            <Array as="points">
              <mxPoint x="765" y="488" />
            </Array>
          </mxGeometry>
        </mxCell>
        <mxCell id="pWNWsEvPuvu-C5qg_55w-45" value="assign 赋值" style="edgeLabel;html=1;align=center;verticalAlign=middle;resizable=0;points=[];fontSize=13;" parent="pWNWsEvPuvu-C5qg_55w-43" vertex="1" connectable="0">
          <mxGeometry x="-0.4395" y="1" relative="1" as="geometry">
            <mxPoint as="offset" />
          </mxGeometry>
        </mxCell>
        <mxCell id="pWNWsEvPuvu-C5qg_55w-46" value="" style="endArrow=classic;html=1;rounded=0;entryX=1;entryY=0.5;entryDx=0;entryDy=0;exitX=0;exitY=0.5;exitDx=0;exitDy=0;" parent="1" source="pWNWsEvPuvu-C5qg_55w-3" target="pWNWsEvPuvu-C5qg_55w-36" edge="1">
          <mxGeometry width="50" height="50" relative="1" as="geometry">
            <mxPoint x="260" y="390" as="sourcePoint" />
            <mxPoint x="320" y="340" as="targetPoint" />
          </mxGeometry>
        </mxCell>
        <mxCell id="pWNWsEvPuvu-C5qg_55w-48" value="" style="endArrow=classic;html=1;rounded=0;exitX=0;exitY=0.25;exitDx=0;exitDy=0;entryX=0.092;entryY=-0.02;entryDx=0;entryDy=0;entryPerimeter=0;fillColor=#0050ef;strokeColor=#001DBC;strokeWidth=2;" parent="1" source="pWNWsEvPuvu-C5qg_55w-14" target="pWNWsEvPuvu-C5qg_55w-13" edge="1">
          <mxGeometry width="50" height="50" relative="1" as="geometry">
            <mxPoint x="420" y="690" as="sourcePoint" />
            <mxPoint x="470" y="640" as="targetPoint" />
          </mxGeometry>
        </mxCell>
        <mxCell id="pWNWsEvPuvu-C5qg_55w-49" value="" style="endArrow=classic;html=1;rounded=0;entryX=0.938;entryY=0;entryDx=0;entryDy=0;entryPerimeter=0;exitX=1;exitY=0.25;exitDx=0;exitDy=0;fillColor=#6a00ff;strokeColor=#3700CC;strokeWidth=2;" parent="1" source="pWNWsEvPuvu-C5qg_55w-14" target="pWNWsEvPuvu-C5qg_55w-13" edge="1">
          <mxGeometry width="50" height="50" relative="1" as="geometry">
            <mxPoint x="420" y="690" as="sourcePoint" />
            <mxPoint x="470" y="640" as="targetPoint" />
          </mxGeometry>
        </mxCell>
      </root>
    </mxGraphModel>
  </diagram>
</mxfile>
